<mxfile host="app.diagrams.net" modified="2021-12-06T15:31:00.163Z" agent="5.0 (Windows NT 10.0; Win64; x64) AppleWebKit/537.36 (KHTML, like Gecko) Chrome/93.0.4577.82 Safari/537.36" etag="LJjVVLAInkHoM86CNqP6" version="15.9.1" type="github">
  <diagram id="oXsMUlPiev732DguRU83" name="第 1 页">
    <mxGraphModel dx="1422" dy="754" grid="1" gridSize="10" guides="1" tooltips="1" connect="1" arrows="1" fold="1" page="1" pageScale="1" pageWidth="827" pageHeight="1169" math="0" shadow="0">
      <root>
        <mxCell id="0" />
        <mxCell id="1" parent="0" />
        <mxCell id="UW6y9hKON57foF3uA_Eu-11" value="" style="edgeStyle=orthogonalEdgeStyle;rounded=0;orthogonalLoop=1;jettySize=auto;html=1;sketch=1;strokeWidth=1;" edge="1" parent="1" source="UW6y9hKON57foF3uA_Eu-9" target="UW6y9hKON57foF3uA_Eu-10">
          <mxGeometry relative="1" as="geometry" />
        </mxCell>
        <mxCell id="UW6y9hKON57foF3uA_Eu-9" value="1" style="rounded=0;whiteSpace=wrap;html=1;sketch=1;strokeWidth=1;verticalAlign=middle;fillColor=#dae8fc;strokeColor=#6c8ebf;gradientColor=#7ea6e0;" vertex="1" parent="1">
          <mxGeometry x="180" y="150" width="40" height="30" as="geometry" />
        </mxCell>
        <mxCell id="UW6y9hKON57foF3uA_Eu-13" value="" style="edgeStyle=orthogonalEdgeStyle;rounded=0;orthogonalLoop=1;jettySize=auto;html=1;sketch=1;strokeWidth=1;" edge="1" parent="1" source="UW6y9hKON57foF3uA_Eu-10" target="UW6y9hKON57foF3uA_Eu-12">
          <mxGeometry relative="1" as="geometry" />
        </mxCell>
        <mxCell id="UW6y9hKON57foF3uA_Eu-10" value="2" style="rounded=0;whiteSpace=wrap;html=1;sketch=1;strokeWidth=1;" vertex="1" parent="1">
          <mxGeometry x="260" y="150" width="40" height="30" as="geometry" />
        </mxCell>
        <mxCell id="UW6y9hKON57foF3uA_Eu-15" value="" style="edgeStyle=orthogonalEdgeStyle;orthogonalLoop=1;jettySize=auto;html=1;curved=1;sketch=1;strokeWidth=1;" edge="1" parent="1" source="UW6y9hKON57foF3uA_Eu-12" target="UW6y9hKON57foF3uA_Eu-14">
          <mxGeometry relative="1" as="geometry" />
        </mxCell>
        <mxCell id="UW6y9hKON57foF3uA_Eu-12" value="3" style="rounded=0;whiteSpace=wrap;html=1;sketch=1;strokeWidth=1;" vertex="1" parent="1">
          <mxGeometry x="330" y="150" width="40" height="30" as="geometry" />
        </mxCell>
        <mxCell id="UW6y9hKON57foF3uA_Eu-25" value="" style="edgeStyle=orthogonalEdgeStyle;orthogonalLoop=1;jettySize=auto;html=1;sketch=1;strokeWidth=1;rounded=0;" edge="1" parent="1" source="UW6y9hKON57foF3uA_Eu-14" target="UW6y9hKON57foF3uA_Eu-24">
          <mxGeometry relative="1" as="geometry" />
        </mxCell>
        <mxCell id="UW6y9hKON57foF3uA_Eu-14" value="7" style="rounded=0;whiteSpace=wrap;html=1;sketch=1;strokeWidth=1;" vertex="1" parent="1">
          <mxGeometry x="394" y="190" width="40" height="30" as="geometry" />
        </mxCell>
        <mxCell id="UW6y9hKON57foF3uA_Eu-23" style="edgeStyle=orthogonalEdgeStyle;orthogonalLoop=1;jettySize=auto;html=1;entryX=0.5;entryY=1;entryDx=0;entryDy=0;curved=1;sketch=1;strokeWidth=1;" edge="1" parent="1" source="UW6y9hKON57foF3uA_Eu-20" target="UW6y9hKON57foF3uA_Eu-14">
          <mxGeometry relative="1" as="geometry" />
        </mxCell>
        <mxCell id="UW6y9hKON57foF3uA_Eu-20" value="0" style="rounded=0;whiteSpace=wrap;html=1;sketch=1;strokeWidth=1;" vertex="1" parent="1">
          <mxGeometry x="330" y="240" width="40" height="30" as="geometry" />
        </mxCell>
        <mxCell id="UW6y9hKON57foF3uA_Eu-24" value="8" style="rounded=0;whiteSpace=wrap;html=1;sketch=1;strokeWidth=1;" vertex="1" parent="1">
          <mxGeometry x="470" y="190" width="40" height="30" as="geometry" />
        </mxCell>
        <mxCell id="UW6y9hKON57foF3uA_Eu-29" value="" style="edgeStyle=orthogonalEdgeStyle;curved=1;sketch=1;orthogonalLoop=1;jettySize=auto;html=1;strokeWidth=1;" edge="1" parent="1" source="UW6y9hKON57foF3uA_Eu-28" target="UW6y9hKON57foF3uA_Eu-20">
          <mxGeometry relative="1" as="geometry" />
        </mxCell>
        <mxCell id="UW6y9hKON57foF3uA_Eu-28" value="4" style="rounded=0;whiteSpace=wrap;html=1;sketch=1;strokeWidth=1;fillColor=#f8cecc;strokeColor=#b85450;gradientColor=#ea6b66;" vertex="1" parent="1">
          <mxGeometry x="260" y="240" width="40" height="30" as="geometry" />
        </mxCell>
        <mxCell id="UW6y9hKON57foF3uA_Eu-30" value="&lt;font face=&quot;Verdana&quot;&gt;NodeA&lt;/font&gt;" style="text;html=1;strokeColor=none;fillColor=none;align=center;verticalAlign=middle;whiteSpace=wrap;rounded=0;sketch=1;" vertex="1" parent="1">
          <mxGeometry x="170" y="120" width="60" height="30" as="geometry" />
        </mxCell>
        <mxCell id="UW6y9hKON57foF3uA_Eu-31" value="NodeB" style="text;html=1;strokeColor=none;fillColor=none;align=center;verticalAlign=middle;whiteSpace=wrap;rounded=0;sketch=1;fontFamily=Verdana;" vertex="1" parent="1">
          <mxGeometry x="250" y="270" width="60" height="30" as="geometry" />
        </mxCell>
        <mxCell id="UW6y9hKON57foF3uA_Eu-32" value="" style="edgeStyle=orthogonalEdgeStyle;rounded=0;orthogonalLoop=1;jettySize=auto;html=1;sketch=1;strokeWidth=1;" edge="1" parent="1" source="UW6y9hKON57foF3uA_Eu-33" target="UW6y9hKON57foF3uA_Eu-35">
          <mxGeometry relative="1" as="geometry" />
        </mxCell>
        <mxCell id="UW6y9hKON57foF3uA_Eu-33" value="1" style="rounded=0;whiteSpace=wrap;html=1;sketch=1;strokeWidth=1;verticalAlign=middle;fillColor=#f8cecc;strokeColor=#b85450;gradientColor=#ea6b66;" vertex="1" parent="1">
          <mxGeometry x="180" y="380" width="40" height="30" as="geometry" />
        </mxCell>
        <mxCell id="UW6y9hKON57foF3uA_Eu-34" value="" style="edgeStyle=orthogonalEdgeStyle;rounded=0;orthogonalLoop=1;jettySize=auto;html=1;sketch=1;strokeWidth=1;" edge="1" parent="1" source="UW6y9hKON57foF3uA_Eu-35" target="UW6y9hKON57foF3uA_Eu-37">
          <mxGeometry relative="1" as="geometry" />
        </mxCell>
        <mxCell id="UW6y9hKON57foF3uA_Eu-35" value="2" style="rounded=0;whiteSpace=wrap;html=1;sketch=1;strokeWidth=1;" vertex="1" parent="1">
          <mxGeometry x="260" y="380" width="40" height="30" as="geometry" />
        </mxCell>
        <mxCell id="UW6y9hKON57foF3uA_Eu-36" value="" style="edgeStyle=orthogonalEdgeStyle;orthogonalLoop=1;jettySize=auto;html=1;curved=1;sketch=1;strokeWidth=1;" edge="1" parent="1" source="UW6y9hKON57foF3uA_Eu-37" target="UW6y9hKON57foF3uA_Eu-39">
          <mxGeometry relative="1" as="geometry" />
        </mxCell>
        <mxCell id="UW6y9hKON57foF3uA_Eu-37" value="3" style="rounded=0;whiteSpace=wrap;html=1;sketch=1;strokeWidth=1;" vertex="1" parent="1">
          <mxGeometry x="330" y="380" width="40" height="30" as="geometry" />
        </mxCell>
        <mxCell id="UW6y9hKON57foF3uA_Eu-38" value="" style="edgeStyle=orthogonalEdgeStyle;orthogonalLoop=1;jettySize=auto;html=1;sketch=1;strokeWidth=1;rounded=0;" edge="1" parent="1" source="UW6y9hKON57foF3uA_Eu-39" target="UW6y9hKON57foF3uA_Eu-42">
          <mxGeometry relative="1" as="geometry" />
        </mxCell>
        <mxCell id="UW6y9hKON57foF3uA_Eu-39" value="7" style="rounded=0;whiteSpace=wrap;html=1;sketch=1;strokeWidth=1;" vertex="1" parent="1">
          <mxGeometry x="394" y="420" width="40" height="30" as="geometry" />
        </mxCell>
        <mxCell id="UW6y9hKON57foF3uA_Eu-40" style="edgeStyle=orthogonalEdgeStyle;orthogonalLoop=1;jettySize=auto;html=1;entryX=0.5;entryY=1;entryDx=0;entryDy=0;curved=1;sketch=1;strokeWidth=1;" edge="1" parent="1" source="UW6y9hKON57foF3uA_Eu-41" target="UW6y9hKON57foF3uA_Eu-39">
          <mxGeometry relative="1" as="geometry" />
        </mxCell>
        <mxCell id="UW6y9hKON57foF3uA_Eu-41" value="0" style="rounded=0;whiteSpace=wrap;html=1;sketch=1;strokeWidth=1;" vertex="1" parent="1">
          <mxGeometry x="330" y="470" width="40" height="30" as="geometry" />
        </mxCell>
        <mxCell id="UW6y9hKON57foF3uA_Eu-42" value="8" style="rounded=0;whiteSpace=wrap;html=1;sketch=1;strokeWidth=1;fillColor=#dae8fc;strokeColor=#6c8ebf;gradientColor=#7ea6e0;" vertex="1" parent="1">
          <mxGeometry x="470" y="420" width="40" height="30" as="geometry" />
        </mxCell>
        <mxCell id="UW6y9hKON57foF3uA_Eu-43" value="" style="edgeStyle=orthogonalEdgeStyle;curved=1;sketch=1;orthogonalLoop=1;jettySize=auto;html=1;strokeWidth=1;" edge="1" parent="1" source="UW6y9hKON57foF3uA_Eu-44" target="UW6y9hKON57foF3uA_Eu-41">
          <mxGeometry relative="1" as="geometry" />
        </mxCell>
        <mxCell id="UW6y9hKON57foF3uA_Eu-44" value="4" style="rounded=0;whiteSpace=wrap;html=1;sketch=1;strokeWidth=1;" vertex="1" parent="1">
          <mxGeometry x="260" y="470" width="40" height="30" as="geometry" />
        </mxCell>
        <mxCell id="UW6y9hKON57foF3uA_Eu-45" value="&lt;font face=&quot;Verdana&quot;&gt;NodeB&lt;/font&gt;" style="text;html=1;strokeColor=none;fillColor=none;align=center;verticalAlign=middle;whiteSpace=wrap;rounded=0;sketch=1;" vertex="1" parent="1">
          <mxGeometry x="170" y="350" width="60" height="30" as="geometry" />
        </mxCell>
        <mxCell id="UW6y9hKON57foF3uA_Eu-46" value="NodeA" style="text;html=1;strokeColor=none;fillColor=none;align=center;verticalAlign=middle;whiteSpace=wrap;rounded=0;sketch=1;fontFamily=Verdana;" vertex="1" parent="1">
          <mxGeometry x="460" y="390" width="60" height="30" as="geometry" />
        </mxCell>
        <mxCell id="UW6y9hKON57foF3uA_Eu-47" value="" style="edgeStyle=orthogonalEdgeStyle;rounded=0;orthogonalLoop=1;jettySize=auto;html=1;sketch=1;strokeWidth=1;" edge="1" parent="1" source="UW6y9hKON57foF3uA_Eu-48" target="UW6y9hKON57foF3uA_Eu-50">
          <mxGeometry relative="1" as="geometry" />
        </mxCell>
        <mxCell id="UW6y9hKON57foF3uA_Eu-48" value="1" style="rounded=0;whiteSpace=wrap;html=1;sketch=1;strokeWidth=1;verticalAlign=middle;" vertex="1" parent="1">
          <mxGeometry x="180" y="600" width="40" height="30" as="geometry" />
        </mxCell>
        <mxCell id="UW6y9hKON57foF3uA_Eu-49" value="" style="edgeStyle=orthogonalEdgeStyle;rounded=0;orthogonalLoop=1;jettySize=auto;html=1;sketch=1;strokeWidth=1;" edge="1" parent="1" source="UW6y9hKON57foF3uA_Eu-50" target="UW6y9hKON57foF3uA_Eu-52">
          <mxGeometry relative="1" as="geometry" />
        </mxCell>
        <mxCell id="UW6y9hKON57foF3uA_Eu-50" value="2" style="rounded=0;whiteSpace=wrap;html=1;sketch=1;strokeWidth=1;fillColor=#f8cecc;strokeColor=#b85450;gradientColor=#ea6b66;" vertex="1" parent="1">
          <mxGeometry x="260" y="600" width="40" height="30" as="geometry" />
        </mxCell>
        <mxCell id="UW6y9hKON57foF3uA_Eu-51" value="" style="edgeStyle=orthogonalEdgeStyle;orthogonalLoop=1;jettySize=auto;html=1;curved=1;sketch=1;strokeWidth=1;" edge="1" parent="1" source="UW6y9hKON57foF3uA_Eu-52" target="UW6y9hKON57foF3uA_Eu-54">
          <mxGeometry relative="1" as="geometry" />
        </mxCell>
        <mxCell id="UW6y9hKON57foF3uA_Eu-52" value="3" style="rounded=0;whiteSpace=wrap;html=1;sketch=1;strokeWidth=1;" vertex="1" parent="1">
          <mxGeometry x="330" y="600" width="40" height="30" as="geometry" />
        </mxCell>
        <mxCell id="UW6y9hKON57foF3uA_Eu-53" value="" style="edgeStyle=orthogonalEdgeStyle;orthogonalLoop=1;jettySize=auto;html=1;sketch=1;strokeWidth=1;rounded=0;" edge="1" parent="1" source="UW6y9hKON57foF3uA_Eu-54" target="UW6y9hKON57foF3uA_Eu-57">
          <mxGeometry relative="1" as="geometry" />
        </mxCell>
        <mxCell id="UW6y9hKON57foF3uA_Eu-54" value="7" style="rounded=0;whiteSpace=wrap;html=1;sketch=1;strokeWidth=1;" vertex="1" parent="1">
          <mxGeometry x="394" y="640" width="40" height="30" as="geometry" />
        </mxCell>
        <mxCell id="UW6y9hKON57foF3uA_Eu-55" style="edgeStyle=orthogonalEdgeStyle;orthogonalLoop=1;jettySize=auto;html=1;entryX=0.5;entryY=1;entryDx=0;entryDy=0;curved=1;sketch=1;strokeWidth=1;" edge="1" parent="1" source="UW6y9hKON57foF3uA_Eu-56" target="UW6y9hKON57foF3uA_Eu-54">
          <mxGeometry relative="1" as="geometry" />
        </mxCell>
        <mxCell id="UW6y9hKON57foF3uA_Eu-56" value="0" style="rounded=0;whiteSpace=wrap;html=1;sketch=1;strokeWidth=1;" vertex="1" parent="1">
          <mxGeometry x="330" y="690" width="40" height="30" as="geometry" />
        </mxCell>
        <mxCell id="UW6y9hKON57foF3uA_Eu-57" value="8" style="rounded=0;whiteSpace=wrap;html=1;sketch=1;strokeWidth=1;" vertex="1" parent="1">
          <mxGeometry x="470" y="640" width="40" height="30" as="geometry" />
        </mxCell>
        <mxCell id="UW6y9hKON57foF3uA_Eu-58" value="" style="edgeStyle=orthogonalEdgeStyle;curved=1;sketch=1;orthogonalLoop=1;jettySize=auto;html=1;strokeWidth=1;" edge="1" parent="1" source="UW6y9hKON57foF3uA_Eu-59" target="UW6y9hKON57foF3uA_Eu-56">
          <mxGeometry relative="1" as="geometry" />
        </mxCell>
        <mxCell id="UW6y9hKON57foF3uA_Eu-59" value="4" style="rounded=0;whiteSpace=wrap;html=1;sketch=1;strokeWidth=1;fillColor=#dae8fc;strokeColor=#6c8ebf;gradientColor=#7ea6e0;" vertex="1" parent="1">
          <mxGeometry x="260" y="690" width="40" height="30" as="geometry" />
        </mxCell>
        <mxCell id="UW6y9hKON57foF3uA_Eu-60" value="&lt;font face=&quot;Verdana&quot; style=&quot;font-size: 12px&quot;&gt;NodeB&lt;/font&gt;" style="text;html=1;strokeColor=none;fillColor=none;align=center;verticalAlign=middle;whiteSpace=wrap;rounded=0;sketch=1;" vertex="1" parent="1">
          <mxGeometry x="250" y="570" width="60" height="30" as="geometry" />
        </mxCell>
        <mxCell id="UW6y9hKON57foF3uA_Eu-61" value="NodeA" style="text;html=1;strokeColor=none;fillColor=none;align=center;verticalAlign=middle;whiteSpace=wrap;rounded=0;sketch=1;fontFamily=Verdana;" vertex="1" parent="1">
          <mxGeometry x="250" y="720" width="60" height="30" as="geometry" />
        </mxCell>
        <mxCell id="UW6y9hKON57foF3uA_Eu-62" value="" style="edgeStyle=orthogonalEdgeStyle;rounded=0;orthogonalLoop=1;jettySize=auto;html=1;sketch=1;strokeWidth=1;" edge="1" parent="1" source="UW6y9hKON57foF3uA_Eu-63" target="UW6y9hKON57foF3uA_Eu-65">
          <mxGeometry relative="1" as="geometry" />
        </mxCell>
        <mxCell id="UW6y9hKON57foF3uA_Eu-63" value="1" style="rounded=0;whiteSpace=wrap;html=1;sketch=1;strokeWidth=1;verticalAlign=middle;" vertex="1" parent="1">
          <mxGeometry x="180" y="830" width="40" height="30" as="geometry" />
        </mxCell>
        <mxCell id="UW6y9hKON57foF3uA_Eu-64" value="" style="edgeStyle=orthogonalEdgeStyle;rounded=0;orthogonalLoop=1;jettySize=auto;html=1;sketch=1;strokeWidth=1;" edge="1" parent="1" source="UW6y9hKON57foF3uA_Eu-65" target="UW6y9hKON57foF3uA_Eu-67">
          <mxGeometry relative="1" as="geometry" />
        </mxCell>
        <mxCell id="UW6y9hKON57foF3uA_Eu-65" value="2" style="rounded=0;whiteSpace=wrap;html=1;sketch=1;strokeWidth=1;" vertex="1" parent="1">
          <mxGeometry x="260" y="830" width="40" height="30" as="geometry" />
        </mxCell>
        <mxCell id="UW6y9hKON57foF3uA_Eu-66" value="" style="edgeStyle=orthogonalEdgeStyle;orthogonalLoop=1;jettySize=auto;html=1;curved=1;sketch=1;strokeWidth=1;" edge="1" parent="1" source="UW6y9hKON57foF3uA_Eu-67" target="UW6y9hKON57foF3uA_Eu-69">
          <mxGeometry relative="1" as="geometry" />
        </mxCell>
        <mxCell id="UW6y9hKON57foF3uA_Eu-67" value="3" style="rounded=0;whiteSpace=wrap;html=1;sketch=1;strokeWidth=1;" vertex="1" parent="1">
          <mxGeometry x="330" y="830" width="40" height="30" as="geometry" />
        </mxCell>
        <mxCell id="UW6y9hKON57foF3uA_Eu-68" value="" style="edgeStyle=orthogonalEdgeStyle;orthogonalLoop=1;jettySize=auto;html=1;sketch=1;strokeWidth=1;rounded=0;" edge="1" parent="1" source="UW6y9hKON57foF3uA_Eu-69" target="UW6y9hKON57foF3uA_Eu-72">
          <mxGeometry relative="1" as="geometry" />
        </mxCell>
        <mxCell id="UW6y9hKON57foF3uA_Eu-69" value="7" style="rounded=0;whiteSpace=wrap;html=1;sketch=1;strokeWidth=1;fillColor=#d5e8d4;strokeColor=#82b366;gradientColor=#97d077;" vertex="1" parent="1">
          <mxGeometry x="394" y="870" width="40" height="30" as="geometry" />
        </mxCell>
        <mxCell id="UW6y9hKON57foF3uA_Eu-70" style="edgeStyle=orthogonalEdgeStyle;orthogonalLoop=1;jettySize=auto;html=1;entryX=0.5;entryY=1;entryDx=0;entryDy=0;curved=1;sketch=1;strokeWidth=1;" edge="1" parent="1" source="UW6y9hKON57foF3uA_Eu-71" target="UW6y9hKON57foF3uA_Eu-69">
          <mxGeometry relative="1" as="geometry" />
        </mxCell>
        <mxCell id="UW6y9hKON57foF3uA_Eu-71" value="0" style="rounded=0;whiteSpace=wrap;html=1;sketch=1;strokeWidth=1;" vertex="1" parent="1">
          <mxGeometry x="330" y="920" width="40" height="30" as="geometry" />
        </mxCell>
        <mxCell id="UW6y9hKON57foF3uA_Eu-72" value="8" style="rounded=0;whiteSpace=wrap;html=1;sketch=1;strokeWidth=1;" vertex="1" parent="1">
          <mxGeometry x="530" y="870" width="40" height="30" as="geometry" />
        </mxCell>
        <mxCell id="UW6y9hKON57foF3uA_Eu-73" value="" style="edgeStyle=orthogonalEdgeStyle;curved=1;sketch=1;orthogonalLoop=1;jettySize=auto;html=1;strokeWidth=1;" edge="1" parent="1" source="UW6y9hKON57foF3uA_Eu-74" target="UW6y9hKON57foF3uA_Eu-71">
          <mxGeometry relative="1" as="geometry" />
        </mxCell>
        <mxCell id="UW6y9hKON57foF3uA_Eu-74" value="4" style="rounded=0;whiteSpace=wrap;html=1;sketch=1;strokeWidth=1;" vertex="1" parent="1">
          <mxGeometry x="260" y="920" width="40" height="30" as="geometry" />
        </mxCell>
        <mxCell id="UW6y9hKON57foF3uA_Eu-83" value="NodeB" style="text;html=1;strokeColor=none;fillColor=none;align=center;verticalAlign=middle;whiteSpace=wrap;rounded=0;sketch=1;fontFamily=Verdana;fontSize=12;" vertex="1" parent="1">
          <mxGeometry x="414" y="840" width="60" height="30" as="geometry" />
        </mxCell>
        <mxCell id="UW6y9hKON57foF3uA_Eu-84" value="NodeA" style="text;html=1;strokeColor=none;fillColor=none;align=center;verticalAlign=middle;whiteSpace=wrap;rounded=0;sketch=1;fontFamily=Verdana;fontSize=12;" vertex="1" parent="1">
          <mxGeometry x="414" y="900" width="60" height="30" as="geometry" />
        </mxCell>
      </root>
    </mxGraphModel>
  </diagram>
</mxfile>
